# xmcd
#
# Track frame offsets: 
#        150
#        14852
#        29067
#        41600
#        53102
#        71312
#        84472
#        97230
#        113640
#        134015
#        145857
#        159537
#        178672
#        190975
#        212562
#        226262
#        242230
#        255085
#        270292
#        285635
#
# Disc length: 4039 seconds
#
# Revision: 9
# Processed by: cddbd v1.5.2PL0 Copyright (c) Steve Scherf et al.
# Submitted via: ExactAudioCopy v0.95a4
#
DISCID=200fc514
DTITLE=Merle Haggard - Down Every Road [CD4]
DYEAR=1996
DGENRE=Country
TTITLE0=If We're Not Back In Love By Monday
TTITLE1=Ramblin' Fever
TTITLE2=It's Been A Great Afternoon
TTITLE3=Red Bandana
TTITLE4=Footlights
TTITLE5=My Own Kind Of Hat
TTITLE6=Misery And Gin
TTITLE7=Leonard
TTITLE8=I Think I'll Just Stay Here And Drink
TTITLE9=Rainbow Stew
TTITLE10=Big City
TTITLE11=Are The Good Times Really Over (I Wish A Buck Was Still Silve
TTITLE11=r)
TTITLE12=You Take Me For Granted
TTITLE13=Pancho And Lefty
TTITLE14=That's The Way Love Goes
TTITLE15=Someday When Things Are Good
TTITLE16=Let's Chase Each Other Around The Room
TTITLE17=Kern River
TTITLE18=Twinkle, Twinkle Lucky Star
TTITLE19=In My Next Life
EXTD=YEAR: 1996 (1977-94)
EXTT0=
EXTT1=
EXTT2=
EXTT3=
EXTT4=
EXTT5=
EXTT6=
EXTT7=
EXTT8=
EXTT9=
EXTT10=
EXTT11=
EXTT12=
EXTT13=
EXTT14=
EXTT15=
EXTT16=
EXTT17=
EXTT18=
EXTT19=
PLAYORDER=
